<?xml version="1.0" encoding="UTF-8"?>
<svg width="21px" height="21px" viewBox="0 0 21 21" version="1.1" xmlns="http://www.w3.org/2000/svg" xmlns:xlink="http://www.w3.org/1999/xlink">
    <!-- Generator: Sketch 64 (93537) - https://sketch.com -->
    <title>More-Icon</title>
    <desc>Created with Sketch.</desc>
    <g id="v2" stroke="none" stroke-width="1" fill="none" fill-rule="evenodd">
        <g id="WebApp-Copy-7" transform="translate(-875.000000, -65.000000)" stroke="#161922" stroke-width="3">
            <g id="center" transform="translate(420.000000, 0.000000)">
                <g id="Accueil-Menus">
                    <g id="SearchBtn" transform="translate(440.000000, 50.000000)">
                        <path d="M29.2879279,29.3185083 C29.4110801,29.1960054 29.5299994,29.0692465 29.644447,28.9384691 L29.6446062,28.9386283 C30.8001406,27.6194232 31.5,25.8913887 31.5,24 C31.5,21.9289322 30.6605339,20.0539322 29.3033009,18.6966991 C27.9460678,17.3394661 26.0710678,16.5 24,16.5 C21.9289322,16.5 20.0539322,17.3394661 18.6966991,18.6966991 C17.3394661,20.0539322 16.5,21.9289322 16.5,24 C16.5,26.0710678 17.3394661,27.9460678 18.6966991,29.3033009 C20.0539322,30.6605339 21.9289322,31.5 24,31.5 C26.0632505,31.5 27.9321115,30.6671762 29.2879279,29.3185083 L29.2879242,29.3184982 C29.4111338,29.1960481 29.530107,29.0693452 29.6446062,28.9386283 L35.1818724,34.4747656 L34.4747656,35.1818724 L28.9384691,29.644447 C29.0583944,29.5394964 29.1749405,29.4307854 29.2879242,29.3184982 Z" id="More-Icon"></path>
                    </g>
                </g>
            </g>
        </g>
    </g>
</svg>